<?xml version="1.0" standalone="no"?>
<!DOCTYPE svg PUBLIC "-//W3C//DTD SVG 20010904//EN"
 "http://www.w3.org/TR/2001/REC-SVG-20010904/DTD/svg10.dtd">
<svg version="1.0" xmlns="http://www.w3.org/2000/svg"
 width="931.000000pt" height="1200.000000pt" viewBox="0 0 931.000000 1200.000000"
 preserveAspectRatio="xMidYMid meet">

<g transform="translate(0.000000,1200.000000) scale(0.100000,-0.100000)"
fill="#000000" stroke="none">
<path d="M4464 10766 c-5 -13 -14 -15 -34 -11 -19 4 -29 2 -33 -9 -4 -11 -15
-13 -41 -9 -24 4 -36 2 -36 -6 0 -6 7 -11 14 -11 14 0 66 -58 66 -73 0 -4 -7
-7 -15 -7 -8 0 -15 4 -15 9 0 5 -11 11 -25 13 -29 6 -30 5 -9 -16 18 -18 9
-40 -13 -32 -9 4 -22 1 -29 -5 -17 -14 -44 4 -44 28 0 10 -6 13 -16 9 -20 -8
-74 20 -74 39 0 12 -6 12 -42 0 -56 -18 -232 -34 -273 -25 -26 6 -32 4 -31 -9
1 -12 -9 -17 -34 -18 -137 -8 -202 -17 -207 -29 -3 -8 -18 -14 -33 -14 -15 0
-33 -7 -40 -15 -13 -16 -35 -21 -25 -6 3 5 0 13 -6 17 -6 3 -15 0 -20 -7 -5
-8 -3 -16 4 -21 19 -12 -10 -17 -115 -20 -53 -2 -99 -5 -101 -8 -3 -3 -7 -16
-9 -30 -4 -29 33 -51 93 -55 46 -4 59 -11 59 -32 0 -13 3 -13 15 -3 18 15 27
10 15 -9 -5 -9 -14 -11 -26 -6 -31 13 -54 15 -54 5 0 -6 4 -10 9 -10 5 0 11
-9 14 -20 3 -14 14 -20 31 -20 21 0 26 -5 26 -26 0 -21 -3 -24 -20 -19 -12 4
-27 1 -35 -5 -12 -10 -19 -8 -35 11 -10 13 -17 32 -14 42 3 9 1 17 -4 17 -16
0 -21 -12 -12 -34 6 -17 4 -22 -10 -23 -13 -1 -16 4 -13 18 8 29 -14 51 -39
38 -16 -8 -23 -8 -30 2 -6 10 -7 7 -3 -8 7 -26 -12 -31 -34 -10 -11 10 -14 10
-18 0 -3 -7 -11 -13 -19 -13 -8 0 -14 -4 -14 -10 0 -5 -7 -10 -15 -10 -19 0
-95 -49 -95 -61 0 -14 38 -30 75 -31 39 -1 48 -25 19 -49 -9 -7 -20 -24 -25
-37 -5 -12 -22 -31 -39 -40 -16 -9 -30 -23 -30 -29 0 -21 -17 -15 -23 7 -3 11
0 20 6 21 7 1 1 4 -12 8 -26 7 -51 63 -28 60 7 -1 25 1 40 6 25 7 26 8 10 20
-26 19 -73 0 -73 -30 0 -14 -7 -26 -19 -30 -20 -6 -36 -34 -25 -44 3 -3 12 3
20 13 13 18 14 18 24 -10 10 -25 8 -30 -14 -47 -21 -15 -24 -22 -15 -38 6 -11
9 -30 7 -42 -3 -19 -8 -22 -42 -19 -33 3 -42 -1 -62 -25 -16 -20 -26 -25 -34
-17 -15 15 -4 37 30 58 35 20 37 27 10 51 -16 15 -22 15 -35 5 -8 -7 -15 -18
-15 -26 0 -7 -8 -19 -18 -26 -21 -15 -82 -98 -82 -111 0 -4 -13 -28 -29 -51
-17 -24 -33 -54 -36 -67 -7 -27 -39 -67 -72 -90 -12 -8 -45 -47 -72 -85 -27
-38 -57 -76 -66 -86 -9 -9 -17 -22 -19 -30 -2 -13 -32 -81 -67 -151 -10 -22
-19 -53 -19 -71 0 -34 -45 -174 -61 -190 -5 -6 -9 -22 -9 -37 0 -15 -4 -31
-10 -34 -6 -3 -10 -17 -10 -31 0 -14 -7 -27 -15 -30 -8 -4 -12 -10 -9 -15 3
-6 1 -15 -4 -22 -5 -7 -12 -24 -16 -39 -3 -16 -11 -28 -16 -28 -6 0 -10 -12
-10 -26 0 -15 -8 -33 -17 -40 -10 -7 -13 -14 -6 -14 6 0 19 -14 28 -32 15 -32
15 -33 -16 -62 -31 -29 -31 -30 -10 -38 18 -6 20 -11 11 -27 -5 -11 -14 -22
-18 -25 -5 -3 -8 -49 -7 -102 1 -67 -3 -100 -12 -110 -18 -17 -17 -89 2 -104
17 -14 21 -70 5 -70 -13 0 -13 -77 1 -85 6 -4 9 -21 8 -39 -2 -17 0 -37 4 -43
4 -7 1 -25 -7 -41 -8 -16 -12 -32 -9 -36 4 -3 1 -16 -5 -29 -6 -12 -13 -40
-15 -62 -3 -22 -8 -49 -13 -59 -6 -17 -4 -18 19 -12 29 7 34 -3 17 -34 -6 -11
-6 -36 -1 -66 6 -33 5 -53 -2 -67 -9 -15 -9 -21 1 -24 8 -3 12 -26 12 -65 0
-39 5 -64 15 -74 8 -9 15 -32 15 -52 1 -20 5 -57 11 -82 11 -52 18 -98 23
-155 8 -92 18 -145 28 -145 6 0 7 -7 4 -16 -4 -12 -1 -14 14 -9 15 5 21 0 26
-22 4 -15 9 -32 12 -38 4 -5 7 -16 8 -25 2 -8 7 -34 13 -58 14 -54 7 -65 -33
-58 -27 5 -34 3 -43 -16 -18 -43 28 -141 59 -122 4 3 11 -2 14 -10 8 -21 24
-10 24 15 0 10 5 19 10 19 6 0 10 -27 10 -62 0 -39 5 -67 14 -77 8 -9 15 -34
16 -56 3 -59 1 -65 -15 -65 -8 0 -15 -4 -15 -10 0 -5 7 -10 15 -10 8 0 15 -4
15 -10 0 -5 5 -10 10 -10 6 0 10 9 10 19 0 16 23 34 40 32 8 -2 -2 -166 -11
-176 -13 -13 -11 -25 4 -25 7 0 18 -12 23 -27 l10 -28 1 35 c1 19 3 62 5 95 2
44 0 59 -10 57 -9 -1 -8 8 4 35 25 60 34 95 32 133 l-1 35 -4 -33 c-3 -20 -9
-32 -16 -29 -16 5 -14 87 3 97 13 8 28 78 29 132 1 15 -8 35 -18 45 -14 13
-21 39 -27 93 -4 41 -11 77 -15 80 -5 3 -2 18 6 34 17 32 21 101 5 91 -20 -13
-40 -66 -47 -125 -12 -121 -37 -48 -29 87 2 44 1 84 -2 88 -4 4 -7 25 -7 48 0
23 -4 52 -8 64 -6 16 -2 28 13 43 18 18 20 29 15 60 -5 28 -1 55 14 94 24 64
40 236 22 236 -13 0 -14 23 -2 64 44 145 45 147 64 142 11 -2 16 -2 13 1 -3 4
-1 12 5 20 9 10 8 18 -5 31 -18 21 -12 32 16 32 10 0 18 5 18 12 0 6 -3 8 -7
5 -3 -4 -12 -2 -19 3 -12 11 -8 46 7 66 5 6 6 25 3 43 -4 17 -3 31 2 31 5 0
10 28 12 62 1 34 7 67 12 72 6 6 10 30 10 56 0 25 10 65 22 90 12 25 20 51 19
58 -1 6 3 20 8 30 8 13 10 14 11 2 0 -13 1 -13 10 0 5 9 5 19 -2 27 -8 10 -6
13 5 13 17 0 67 79 67 107 0 42 227 293 305 338 52 29 101 39 108 20 3 -7 17
-32 31 -54 18 -28 31 -39 42 -34 11 4 12 9 5 16 -15 15 -14 37 2 37 8 0 22
-10 33 -21 19 -21 19 -22 -3 -36 -19 -13 -20 -18 -11 -39 6 -13 18 -24 27 -24
9 0 30 -8 46 -18 17 -10 53 -24 80 -31 28 -7 58 -20 68 -29 15 -13 23 -14 47
-5 35 13 70 6 70 -13 0 -8 4 -14 9 -14 5 0 17 -3 27 -7 12 -4 15 -3 10 5 -4 7
-1 12 6 13 29 2 67 7 153 23 159 30 161 30 168 12 4 -9 1 -17 -6 -17 -16 -2
42 -16 71 -18 13 -1 22 5 22 14 0 8 4 15 10 15 17 0 65 -24 76 -39 13 -17 74
-6 74 15 0 8 7 14 15 14 8 0 15 -4 15 -9 0 -4 48 -14 108 -21 59 -7 113 -17
120 -23 16 -13 185 -1 215 15 21 11 21 12 -15 21 l-37 9 86 44 c47 24 92 44
99 44 7 0 26 14 43 31 35 35 55 32 41 -6 -5 -14 -7 -25 -4 -25 12 0 54 33 54
43 0 5 22 31 49 57 39 37 59 49 94 54 30 5 53 16 71 35 18 18 42 31 69 35 22
4 47 12 54 18 10 8 13 6 13 -6 0 -20 25 -21 42 -1 29 35 53 55 65 55 7 0 50
36 94 80 73 71 119 99 119 70 0 -14 28 -12 58 4 15 8 44 18 65 21 20 3 45 15
55 26 15 16 33 20 99 21 90 2 97 -1 177 -76 27 -25 54 -45 60 -45 47 8 333
-220 293 -234 -11 -3 46 -87 66 -95 4 -2 14 -10 22 -18 7 -8 44 -34 82 -59 88
-57 119 -88 134 -134 6 -20 20 -47 29 -61 10 -14 23 -45 30 -70 7 -25 16 -50
21 -56 5 -6 20 -46 35 -90 14 -43 29 -81 34 -84 8 -5 16 -32 19 -62 1 -5 7 -8
15 -8 18 0 36 -51 36 -101 0 -22 5 -39 11 -39 6 0 8 -7 5 -15 -3 -9 1 -35 10
-58 9 -23 21 -65 28 -92 14 -56 34 -96 54 -108 16 -11 15 -22 -4 -41 -14 -14
-14 -32 -4 -153 7 -76 16 -142 21 -148 11 -12 11 -146 0 -164 -6 -9 -2 -20 10
-32 11 -11 19 -26 19 -34 0 -9 7 -27 16 -41 16 -23 16 -26 -1 -38 -18 -13 -18
-14 4 -21 21 -6 21 -7 4 -20 -11 -8 -22 -10 -29 -4 -14 12 -24 1 -24 -28 0
-29 -16 -30 -25 -2 -7 20 -7 20 -19 2 -14 -20 -28 -149 -19 -182 3 -12 12 -21
19 -21 9 0 14 -12 14 -35 0 -19 5 -35 10 -35 6 0 10 5 10 11 0 5 5 7 10 4 6
-4 10 5 10 19 0 14 4 26 9 26 4 0 11 18 14 41 3 22 8 43 10 46 11 10 27 -9 27
-32 0 -13 5 -27 10 -30 6 -4 10 5 10 19 0 16 6 26 15 26 21 0 19 9 -6 29 -17
14 -20 23 -14 53 4 23 16 43 31 53 29 19 31 45 4 45 -23 0 -24 1 -8 35 6 14
17 24 24 21 18 -7 29 13 15 27 -14 14 -15 71 -1 62 6 -4 8 7 4 27 -4 21 -2 28
3 20 7 -9 13 -6 21 13 7 15 10 31 6 36 -3 6 0 17 7 25 9 11 14 52 15 122 1 68
6 108 13 110 13 4 15 38 2 46 -4 3 -11 44 -13 91 -3 47 -12 92 -19 101 -10 13
-9 21 5 46 15 24 17 42 11 93 -6 63 -6 64 19 71 16 4 23 10 19 18 -8 11 -11
38 -16 119 -1 32 3 51 12 56 10 7 11 13 1 31 -6 12 -9 28 -6 36 3 9 -1 28 -9
44 -20 39 -19 61 4 67 15 4 18 10 12 27 -4 11 -6 38 -3 59 3 24 0 37 -8 37 -7
0 -9 8 -5 21 5 15 1 25 -14 36 -15 10 -20 21 -16 34 4 10 2 19 -3 19 -17 0
-22 69 -7 97 13 26 13 28 -8 39 -25 14 -37 4 -37 -34 0 -15 -5 -22 -12 -19
-10 3 -12 32 -10 113 2 74 -2 130 -12 174 -9 36 -16 82 -16 104 0 41 -15 106
-34 145 -8 19 -8 25 2 28 17 6 15 40 -3 47 -10 3 -15 19 -15 44 0 48 -30 119
-64 152 -15 13 -26 29 -26 37 0 7 -8 13 -18 13 -10 0 -23 13 -31 31 -8 18 -22
34 -32 36 -10 3 -16 9 -13 14 3 5 -1 9 -9 9 -8 0 -17 7 -21 15 -3 8 -9 15 -14
15 -5 0 -2 -29 6 -65 9 -35 13 -67 10 -70 -14 -15 -39 11 -44 46 -7 41 -26 59
-62 59 -14 0 -21 9 -25 30 -5 22 -12 30 -27 30 -18 0 -20 4 -15 33 4 22 0 48
-15 81 -11 27 -19 55 -16 62 5 13 -71 89 -114 114 -74 42 -97 58 -128 88 -19
17 -43 32 -53 32 -10 0 -26 11 -37 25 -11 14 -24 25 -29 25 -6 0 -18 9 -28 20
-10 11 -28 20 -40 20 -13 0 -25 7 -28 15 -3 7 -22 22 -42 33 -20 10 -36 21
-36 25 1 4 1 18 1 31 0 21 -4 24 -25 20 -22 -4 -25 -1 -25 23 0 24 -1 25 -13
9 -11 -15 -20 -16 -67 -8 -35 7 -63 6 -82 0 -16 -6 -32 -8 -35 -4 -4 3 1 6 10
6 23 0 21 17 -3 23 -22 6 -73 -33 -52 -40 15 -6 16 -35 0 -51 -16 -16 -152 -5
-198 15 -34 16 -34 16 -13 30 51 34 -30 98 -89 70 -12 -5 -37 1 -73 18 -31 14
-58 25 -61 25 -4 0 -14 10 -24 23 -19 24 -79 47 -123 47 -14 0 -29 5 -32 10
-4 6 -14 8 -24 5 -9 -3 -44 4 -77 14 -32 11 -77 21 -98 23 -37 3 -40 1 -48
-30 -9 -32 -39 -45 -53 -22 -5 8 -12 7 -23 -2 -13 -11 -15 -10 -10 15 6 33 -4
41 -32 27 -11 -5 -29 -15 -40 -20 -17 -9 -22 -6 -30 15 -13 33 -13 31 6 50 13
12 14 23 6 53 -5 20 -10 29 -11 20 -1 -20 -25 -14 -53 14 -19 19 -64 26 -53 8
3 -5 1 -10 -4 -10 -6 0 -11 4 -11 10 0 5 -12 9 -27 9 -68 1 -78 3 -90 13 -9 7
-14 6 -19 -6z m96 -37 c0 -6 9 -8 20 -4 14 5 20 2 20 -9 0 -10 9 -16 24 -16
13 0 26 -7 30 -15 3 -9 0 -15 -9 -15 -18 0 -35 -31 -35 -64 0 -36 -10 -32 -44
15 -21 30 -25 44 -17 52 8 8 11 8 11 -2 0 -7 5 -9 10 -6 12 7 14 36 3 33 -11
-3 -53 25 -53 34 0 5 9 8 20 8 11 0 20 -5 20 -11z m-1112 -255 l23 -7 -27 -13
c-29 -16 -46 -11 -37 11 6 17 8 17 41 9z m118 -64 c-1 -16 -6 -30 -12 -30 -7
0 -14 -7 -18 -15 -3 -8 -11 -14 -17 -13 -7 2 -17 -14 -24 -35 -6 -21 -15 -37
-20 -35 -14 5 -16 98 -1 98 6 0 19 8 28 18 50 51 66 54 64 12z m354 4 c0 -11
-5 -14 -16 -10 -9 3 -24 6 -35 6 -10 0 -19 5 -19 10 0 6 16 10 35 10 25 0 35
-4 35 -16z m47 10 c-3 -3 -12 -4 -19 -1 -8 3 -5 6 6 6 11 1 17 -2 13 -5z
m-187 -23 c0 -5 -6 -14 -14 -20 -16 -13 -32 2 -21 19 8 12 35 13 35 1z m2097
-56 c3 -9 3 -18 1 -21 -9 -9 -38 8 -38 22 0 19 29 18 37 -1z m-2625 -84 c20
-10 27 -21 26 -40 -2 -27 -25 -71 -38 -71 -4 0 -12 26 -19 57 -13 66 -14 76
-3 71 4 -2 19 -10 34 -17z m3288 -376 c0 -16 -27 -32 -37 -22 -3 4 -3 13 0 22
8 20 37 20 37 0z m-3740 -66 c-7 -11 -14 -18 -17 -15 -3 3 0 12 7 21 18 21 23
19 10 -6z m10 -81 c0 -14 -4 -16 -25 -8 -30 11 -40 -2 -23 -29 16 -26 8 -33
-30 -25 -40 8 -42 35 -7 61 33 24 85 24 85 1z m3797 16 c-3 -3 -12 -4 -19 -1
-8 3 -5 6 6 6 11 1 17 -2 13 -5z m-3912 -92 c6 -4 15 -22 22 -39 11 -32 11
-33 -18 -33 -16 0 -29 5 -29 12 0 6 -7 19 -16 29 -9 10 -13 23 -9 28 7 13 35
14 50 3z m4174 -183 c-14 -28 -28 -23 -25 9 2 15 4 29 5 31 0 2 8 -2 16 -9 11
-9 12 -17 4 -31z m91 -116 c0 -24 -25 -9 -28 17 -3 21 -2 22 12 11 9 -7 16
-20 16 -28z m-4380 -113 c0 -5 -4 -10 -10 -10 -5 0 -10 5 -10 10 0 6 5 10 10
10 6 0 10 -4 10 -10z m520 -306 c0 -9 -5 -14 -12 -12 -18 6 -21 28 -4 28 9 0
16 -7 16 -16z m3297 -10 c-3 -3 -12 -4 -19 -1 -8 3 -5 6 6 6 11 1 17 -2 13 -5z
m-2772 -144 c-3 -5 -15 -10 -26 -10 -10 0 -19 5 -19 10 0 6 12 10 26 10 14 0
23 -4 19 -10z m-59 -9 c-7 -11 -55 -20 -61 -11 -8 12 7 20 37 20 16 0 27 -4
24 -9z m-1449 -1123 c-3 -8 -6 -5 -6 6 -1 11 2 17 5 13 3 -3 4 -12 1 -19z
m4863 18 c0 -3 -4 -8 -10 -11 -5 -3 -10 -1 -10 4 0 6 5 11 10 11 6 0 10 -2 10
-4z m88 -207 l-3 -44 -5 52 c-3 29 -1 48 3 44 5 -5 7 -28 5 -52z m-4878 -164
c0 -18 -5 -25 -20 -25 -35 0 -24 45 13 49 4 1 7 -10 7 -24z m90 -1 c0 -8 -5
-12 -10 -9 -6 4 -8 11 -5 16 9 14 15 11 15 -7z m-104 -99 c1 -25 -2 -45 -7
-45 -5 0 -9 23 -9 52 0 62 13 56 16 -7z m81 -1 c-3 -3 -12 -4 -19 -1 -8 3 -5
6 6 6 11 1 17 -2 13 -5z m-21 -41 c-10 -10 -19 5 -10 18 6 11 8 11 12 0 2 -7
1 -15 -2 -18z m19 -92 c3 -5 1 -12 -5 -16 -5 -3 -10 1 -10 9 0 18 6 21 15 7z"/>
<path d="M4223 10723 c-18 -7 -16 -33 2 -33 8 0 15 9 15 20 0 11 -1 20 -2 19
-2 0 -9 -3 -15 -6z"/>
<path d="M4800 10690 c0 -5 5 -10 10 -10 6 0 10 5 10 10 0 6 -4 10 -10 10 -5
0 -10 -4 -10 -10z"/>
<path d="M4250 10681 c0 -6 5 -13 10 -16 6 -3 10 1 10 9 0 9 -4 16 -10 16 -5
0 -10 -4 -10 -9z"/>
<path d="M5430 10532 c0 -10 33 -42 43 -42 4 0 7 11 7 25 0 20 -5 25 -25 25
-14 0 -25 -4 -25 -8z"/>
<path d="M5640 10441 c0 -12 9 -20 23 -23 20 -4 23 -1 19 19 -5 29 -42 32 -42
4z"/>
<path d="M2837 9994 c-10 -11 3 -24 24 -24 10 0 19 7 19 15 0 15 -31 21 -43 9z"/>
<path d="M6670 9809 c0 -5 5 -7 10 -4 6 3 10 8 10 11 0 2 -4 4 -10 4 -5 0 -10
-5 -10 -11z"/>
<path d="M6660 9780 c0 -5 5 -10 10 -10 6 0 10 5 10 10 0 6 -4 10 -10 10 -5 0
-10 -4 -10 -10z"/>
<path d="M7046 9328 c-4 -22 -2 -36 6 -43 7 -5 19 -22 25 -37 7 -15 21 -32 33
-38 23 -12 26 -3 6 25 -7 11 -17 31 -21 44 -4 14 -15 38 -25 53 l-17 29 -7
-33z"/>
<path d="M7120 9171 c0 -6 5 -13 10 -16 6 -3 10 1 10 9 0 9 -4 16 -10 16 -5 0
-10 -4 -10 -9z"/>
<path d="M7170 8869 c0 -5 5 -7 10 -4 6 3 10 8 10 11 0 2 -4 4 -10 4 -5 0 -10
-5 -10 -11z"/>
<path d="M2410 7770 c0 -5 5 -10 10 -10 6 0 10 5 10 10 0 6 -4 10 -10 10 -5 0
-10 -4 -10 -10z"/>
<path d="M2395 7639 c-11 -16 -1 -19 13 -3 7 8 8 14 3 14 -5 0 -13 -5 -16 -11z"/>
<path d="M6930 7238 c0 -15 5 -30 10 -33 6 -3 10 -19 10 -36 0 -23 4 -29 22
-29 20 0 20 1 4 13 -10 7 -18 28 -19 49 -3 46 -27 77 -27 36z"/>
<path d="M3665 7150 c-11 -5 -34 -9 -50 -9 -17 -1 -36 -6 -42 -12 -8 -8 -21
-7 -47 2 -28 10 -43 10 -68 2 -18 -7 -78 -12 -133 -13 -165 -2 -189 -5 -226
-31 -19 -13 -38 -30 -42 -37 -5 -7 -26 -24 -48 -37 -21 -14 -39 -32 -39 -40 0
-8 -5 -15 -11 -15 -6 0 -17 -7 -25 -15 -8 -8 -23 -20 -32 -27 -24 -18 -50 -75
-58 -128 -3 -25 -10 -52 -14 -59 -4 -8 -4 -25 0 -37 5 -12 6 -47 3 -78 -5 -46
-9 -56 -24 -56 -11 0 -19 -6 -19 -13 0 -16 93 -47 138 -47 41 0 42 -20 2 -62
-24 -24 -29 -38 -25 -58 3 -14 -1 -45 -10 -69 -21 -61 -19 -80 9 -87 14 -3 32
-14 42 -25 15 -17 31 -19 135 -18 66 1 116 5 113 10 -11 19 46 8 59 -11 10
-14 32 -24 65 -29 69 -11 85 -26 79 -72 -4 -30 0 -42 17 -57 11 -11 28 -17 36
-14 8 2 5 -4 -7 -15 -30 -27 -29 -46 4 -64 19 -10 64 -14 172 -13 132 1 154 4
224 28 82 29 233 43 240 23 4 -13 47 10 47 26 0 7 -4 6 -10 -3 -8 -13 -10 -12
-10 3 0 14 5 17 23 11 12 -3 24 -11 25 -15 6 -15 20 -10 54 19 18 15 45 34 59
41 59 29 154 139 167 193 7 26 18 53 25 60 16 15 23 43 40 144 7 39 18 79 26
88 8 9 11 19 8 23 -4 3 0 18 7 32 18 33 56 119 56 126 0 3 -9 5 -20 5 -11 0
-20 6 -20 14 0 8 -7 17 -16 20 -11 4 -15 14 -11 32 4 25 -21 52 -55 58 -36 7
-96 47 -155 103 -51 50 -76 66 -121 79 -32 9 -66 21 -77 27 -11 6 -29 11 -40
13 -11 1 -39 7 -63 13 -23 7 -46 10 -51 7 -5 -3 -35 -1 -67 5 -52 9 -77 17
-144 49 -29 14 -75 19 -95 10z m106 -44 c-7 -8 -21 -12 -32 -9 -16 5 -18 8 -7
14 7 5 21 9 32 9 15 0 16 -3 7 -14z m-51 -640 c0 -8 -4 -17 -9 -21 -12 -7 -24
12 -16 25 9 15 25 12 25 -4z m255 -70 c31 -24 32 -27 26 -98 0 -10 -7 -18 -14
-18 -11 0 -87 -44 -117 -67 -2 -2 2 -8 10 -13 26 -16 4 -21 -26 -5 -37 19 -63
19 -85 -1 -9 -8 -28 -14 -40 -12 -22 3 -22 4 -5 21 10 9 27 17 40 17 33 0 96
67 128 138 15 34 33 62 40 62 6 0 25 -11 43 -24z m-521 -52 c4 -13 12 -24 20
-24 7 0 35 -22 62 -50 27 -27 54 -50 61 -50 21 0 25 -20 8 -36 -15 -15 -21
-14 -73 9 -33 15 -57 33 -57 42 0 8 -4 15 -8 15 -62 1 -66 0 -60 -16 4 -12 2
-15 -8 -12 -27 9 -32 112 -8 144 15 19 57 4 63 -22z m746 -14 c0 -5 -7 -10
-15 -10 -8 0 -15 5 -15 10 0 6 7 10 15 10 8 0 15 -4 15 -10z"/>
<path d="M6325 7129 c-4 -6 -22 -8 -45 -4 -23 4 -41 2 -44 -4 -5 -7 -33 -8
-81 -4 -49 4 -75 2 -75 -4 0 -7 -14 -6 -37 3 -51 18 -213 8 -229 -15 -10 -12
-16 -13 -37 -4 -21 10 -42 9 -104 -4 -43 -10 -107 -17 -142 -18 l-64 0 -31
-47 c-21 -32 -38 -47 -53 -47 -17 -1 -23 -7 -23 -22 0 -14 -5 -19 -14 -16 -10
4 -16 -5 -21 -31 l-8 -37 -14 43 c-22 64 -65 79 -75 27 -4 -22 -23 -26 -50
-13 -23 11 -58 -7 -58 -30 0 -9 -16 -28 -36 -41 -29 -21 -37 -22 -44 -10 -7
11 -12 11 -21 2 -9 -9 -8 -18 5 -37 15 -25 15 -26 -9 -42 -13 -9 -30 -14 -37
-12 -23 8 -40 -21 -35 -55 3 -18 8 -51 12 -73 5 -27 20 -55 44 -82 l37 -40 2
-103 c2 -57 7 -106 11 -109 11 -7 26 -51 23 -67 -2 -7 2 -13 8 -13 5 0 20 -20
31 -45 13 -27 33 -52 50 -61 16 -8 29 -19 29 -24 0 -16 82 -53 89 -41 8 13 73
10 83 -3 7 -10 38 10 38 25 0 4 -10 10 -22 12 -18 3 -16 5 10 7 17 2 37 3 42
4 6 1 10 -2 10 -6 0 -18 46 -58 66 -58 13 0 27 -6 31 -13 15 -24 109 -47 223
-55 108 -8 118 -7 165 14 28 13 57 24 65 26 20 4 60 49 60 68 0 8 11 27 25 42
14 15 25 32 25 38 0 7 18 29 40 50 21 20 36 40 33 44 -3 3 2 8 11 12 10 4 22
2 29 -5 8 -8 8 -11 -2 -11 -7 0 -9 -4 -6 -10 3 -5 24 -7 48 -4 23 3 47 6 54 7
7 0 10 4 7 9 -3 4 17 8 45 8 61 0 97 13 128 46 34 37 33 134 -3 187 -26 39
-51 101 -50 127 1 8 11 19 24 25 12 5 22 13 22 17 0 5 13 8 28 8 37 0 42 6 32
39 -10 37 5 61 38 61 26 1 26 1 8 15 -11 8 -15 15 -9 15 6 0 8 11 5 27 -3 18
1 30 12 39 15 10 16 16 6 34 -7 12 -9 31 -6 43 3 12 -3 30 -16 46 -19 24 -20
25 -14 4 6 -19 3 -23 -13 -23 -26 0 -29 37 -3 56 15 11 14 13 -13 23 -44 16
-86 41 -123 73 -33 28 -75 37 -87 17z m198 -103 c6 -16 -2 -28 -14 -20 -12 7
-11 34 0 34 5 0 11 -6 14 -14z m-753 -545 c0 -12 -20 -25 -27 -18 -7 7 6 27
18 27 5 0 9 -4 9 -9z m470 -7 c0 -8 -4 -12 -10 -9 -5 3 -10 10 -10 16 0 5 5 9
10 9 6 0 10 -7 10 -16z m-151 -40 c30 -15 32 -20 28 -53 -8 -54 -12 -67 -27
-86 -12 -14 -12 -18 0 -25 22 -14 -43 -67 -89 -74 -170 -25 -226 -27 -226 -6
0 8 11 17 24 18 31 5 134 76 155 106 8 13 22 48 30 77 8 30 15 44 15 32 1 -21
9 -27 28 -20 4 1 6 12 5 25 -4 27 12 28 57 6z m-543 -30 c2 -29 19 -66 33 -77
9 -6 28 -27 41 -46 l23 -34 -39 7 c-45 9 -123 51 -131 71 -2 8 3 32 13 54 13
31 22 40 38 37 12 -2 21 -7 22 -12z m-163 -81 c-7 -2 -19 -2 -25 0 -7 3 -2 5
12 5 14 0 19 -2 13 -5z m17 -114 c0 -12 -38 -21 -61 -14 -19 6 -19 8 -4 25 14
15 21 17 41 8 13 -6 24 -15 24 -19z m323 17 c14 -11 15 -15 5 -19 -7 -3 -3 -6
10 -6 12 -1 22 -5 22 -10 0 -6 -23 -9 -50 -9 -32 1 -49 5 -45 12 3 6 8 19 11
29 8 20 22 21 47 3z m-333 -96 c0 -5 -7 -10 -15 -10 -8 0 -15 5 -15 10 0 6 7
10 15 10 8 0 15 -4 15 -10z"/>
<path d="M2362 7101 c-10 -16 -11 -26 -3 -34 15 -15 23 -3 19 30 l-3 28 -13
-24z"/>
<path d="M7039 6856 c4 -23 6 -26 9 -11 2 11 9 23 14 26 5 3 1 8 -9 11 -16 4
-18 1 -14 -26z"/>
<path d="M6974 6783 c1 -12 -7 -19 -22 -21 -19 -3 -21 -6 -11 -18 6 -8 19 -14
28 -15 10 0 11 -2 4 -6 -7 -2 -13 -9 -13 -14 0 -6 5 -7 10 -4 6 4 17 1 25 -5
13 -10 15 -8 15 12 0 13 5 29 11 35 13 13 4 33 -17 33 -8 0 -14 5 -14 10 0 6
-4 10 -9 10 -5 0 -8 -8 -7 -17z"/>
<path d="M6578 6733 c7 -3 16 -2 19 1 4 3 -2 6 -13 5 -11 0 -14 -3 -6 -6z"/>
<path d="M6944 6645 c-7 -17 4 -38 16 -30 10 6 27 -14 32 -40 2 -13 8 -4 17
28 15 52 10 67 -14 47 -10 -8 -15 -9 -15 -1 0 16 -30 13 -36 -4z"/>
<path d="M6946 6561 c-4 -5 -2 -12 3 -15 5 -4 12 -2 15 3 4 5 2 12 -3 15 -5 4
-12 2 -15 -3z"/>
<path d="M2194 6273 c0 -9 -8 -22 -20 -27 -11 -6 -35 -28 -53 -48 -18 -21 -38
-38 -45 -38 -7 0 -18 -15 -24 -34 -20 -55 -1 -76 66 -76 31 0 63 6 77 16 28
18 89 6 110 -22 11 -16 14 -15 29 14 32 62 22 82 -92 198 -37 38 -50 42 -48
17z"/>
<path d="M7010 6140 c0 -11 -4 -20 -10 -20 -13 0 -13 -56 0 -81 16 -28 30 -23
30 11 0 17 -5 30 -10 30 -6 0 -8 15 -4 40 4 22 4 40 0 40 -3 0 -6 -9 -6 -20z"/>
<path d="M2383 6114 c-3 -8 -1 -20 6 -27 8 -8 11 -4 11 16 0 30 -7 35 -17 11z"/>
<path d="M2378 6053 c0 -5 -2 -19 -3 -33 -1 -14 -5 -53 -9 -88 -7 -60 1 -92
24 -92 4 0 7 49 6 110 0 60 -4 110 -8 110 -5 0 -9 -3 -10 -7z"/>
<path d="M3920 5950 c0 -5 11 -10 25 -10 14 0 25 5 25 10 0 6 -11 10 -25 10
-14 0 -25 -4 -25 -10z"/>
<path d="M2376 5764 c-8 -20 11 -94 24 -94 14 0 12 22 -4 46 -10 13 -11 25 -5
35 11 18 11 29 0 29 -5 0 -12 -7 -15 -16z"/>
<path d="M2400 5602 c0 -24 5 -42 11 -42 6 0 9 14 6 36 -7 51 -17 54 -17 6z"/>
<path d="M4193 4966 c-18 -7 -47 -22 -64 -35 -17 -13 -38 -24 -47 -25 -19 -3
-30 -56 -13 -56 6 0 11 -5 11 -11 0 -20 83 -90 132 -112 15 -6 28 -15 28 -19
0 -5 15 -8 33 -8 17 0 50 -5 72 -11 22 -6 57 -13 78 -14 41 -4 70 -21 61 -36
-3 -5 1 -9 9 -9 8 0 21 -7 28 -16 12 -14 9 -20 -16 -42 -20 -17 -26 -27 -17
-30 10 -3 10 -7 2 -17 -6 -8 -12 -28 -12 -45 -1 -39 -27 -55 -64 -38 -23 11
-28 10 -40 -7 -7 -11 -18 -26 -25 -33 -12 -14 -5 -42 10 -42 5 0 16 9 24 20
l14 21 6 -21 c8 -30 33 -34 56 -11 12 12 21 25 21 30 0 5 6 11 13 14 19 7 194
-7 204 -16 4 -5 7 -29 6 -53 -1 -24 3 -44 8 -44 5 0 9 -7 9 -15 0 -12 4 -13
19 -5 11 5 32 7 48 4 39 -8 70 24 53 55 -7 14 -8 27 -1 39 7 14 6 25 -5 40
-26 37 5 82 56 82 13 0 17 5 13 20 -4 16 1 21 26 26 17 4 31 10 31 15 0 17
132 139 150 139 11 0 25 9 32 20 13 21 38 27 38 10 0 -16 35 -12 92 10 42 17
62 33 96 77 23 31 42 65 42 74 0 50 -94 74 -166 44 -30 -12 -125 -75 -144 -95
-61 -62 -120 -95 -120 -67 0 9 -14 17 -35 21 -19 4 -35 11 -35 16 0 6 -7 10
-15 10 -8 0 -15 -5 -15 -11 0 -6 -7 -3 -16 5 -8 9 -27 19 -42 22 -15 3 -43 10
-62 15 -24 6 -36 5 -41 -3 -6 -10 -26 -10 -86 -1 -84 13 -166 41 -157 54 2 4
-11 11 -30 14 -19 4 -43 15 -55 26 -11 10 -32 19 -46 19 -14 0 -25 5 -25 10 0
13 -87 11 -127 -4z"/>
<path d="M3755 4148 c-8 -17 -18 -23 -42 -23 -20 0 -33 -5 -33 -12 0 -7 -8
-13 -18 -13 -22 0 -62 -35 -62 -55 0 -8 -9 -15 -20 -15 -11 0 -29 -9 -40 -20
-11 -11 -16 -20 -11 -20 14 0 22 -30 12 -48 -6 -11 -5 -20 5 -27 8 -6 17 -31
19 -56 3 -26 9 -57 14 -71 5 -15 5 -30 0 -41 -12 -21 -23 -21 -43 -2 -13 13
-23 14 -56 5 -36 -10 -40 -14 -42 -43 0 -18 -1 -40 0 -49 1 -14 -6 -18 -32
-18 -30 0 -34 -4 -40 -31 -12 -61 -9 -67 37 -77 23 -6 32 -10 20 -11 -20 -1
-23 -7 -23 -41 0 -34 -3 -40 -22 -41 -18 -1 -16 -3 7 -8 23 -5 30 -12 30 -30
0 -13 6 -26 13 -28 8 -3 12 7 12 29 1 29 2 31 12 13 6 -11 19 -29 29 -40 9
-11 19 -33 21 -50 3 -26 7 -30 32 -30 36 0 56 -26 37 -49 -18 -21 -41 -20 -41
2 -1 13 -4 11 -15 -8 -25 -44 -12 -86 19 -61 10 9 15 7 19 -9 3 -12 13 -20 26
-20 19 0 21 -6 21 -55 0 -30 6 -64 13 -75 10 -17 9 -22 -1 -29 -9 -5 -11 -17
-6 -35 4 -17 1 -35 -10 -51 -18 -27 -21 -71 -6 -80 6 -3 10 0 10 7 0 9 3 9 10
-2 7 -11 14 -12 27 -5 13 8 27 6 51 -6 30 -15 31 -18 13 -24 -11 -3 -23 -15
-26 -26 -7 -22 -35 -26 -35 -4 0 15 -5 17 -44 19 -13 1 -22 12 -28 34 -9 34
-17 39 -36 20 -8 -8 -19 -2 -43 26 -20 22 -48 40 -71 47 -30 8 -41 17 -53 44
-7 19 -18 35 -23 35 -5 0 -15 -19 -22 -41 -12 -36 -12 -43 1 -53 9 -6 20 -31
25 -56 8 -41 11 -45 37 -42 30 4 36 -14 15 -47 -9 -15 -7 -23 15 -47 15 -16
27 -37 27 -46 0 -10 6 -18 14 -18 16 0 26 -21 26 -56 0 -17 -6 -24 -20 -24
-24 0 -26 -18 -6 -46 14 -18 15 -18 28 -1 13 17 15 17 27 3 8 -9 11 -19 7 -23
-3 -3 1 -17 10 -31 11 -17 13 -27 5 -35 -17 -17 -14 -50 4 -43 8 3 19 -2 23
-11 6 -10 17 -14 31 -10 26 6 40 -18 22 -36 -15 -15 -14 -27 2 -27 6 0 25 -16
40 -36 22 -27 27 -42 23 -62 -4 -16 -3 -22 2 -14 7 10 14 8 35 -8 15 -12 27
-28 27 -35 0 -8 13 -29 29 -47 36 -42 54 -76 46 -88 -3 -6 -2 -10 4 -10 5 0
13 -9 16 -20 4 -11 15 -20 27 -20 11 0 22 -8 25 -20 3 -11 9 -20 14 -20 5 0 9
-18 9 -40 0 -38 2 -40 29 -40 18 0 41 -10 55 -24 27 -24 34 -46 16 -46 -5 0
-10 -4 -10 -10 0 -5 6 -10 13 -10 7 0 27 -16 44 -35 17 -19 36 -35 42 -35 17
0 13 -30 -4 -36 -8 -4 -15 -14 -15 -24 0 -10 -13 -23 -30 -30 -37 -15 -34 -34
4 -38 19 -2 26 -8 22 -18 -8 -22 12 -17 24 6 8 14 8 26 0 40 -8 16 -8 20 4 20
7 0 16 7 20 15 6 16 41 21 50 6 4 -5 3 -17 0 -26 -5 -12 -9 -13 -14 -4 -14 21
-33 -27 -20 -51 9 -18 8 -20 -15 -20 -33 0 -33 -28 -1 -36 14 -3 30 -3 35 1
14 8 161 -47 161 -60 0 -6 18 -22 40 -37 36 -23 38 -26 19 -31 -12 -3 -18 -10
-14 -16 10 -18 42 -12 56 10 10 15 27 21 62 24 60 4 79 19 51 40 -10 8 -26 15
-34 16 -17 1 27 17 53 18 10 1 23 -10 29 -24 7 -16 19 -25 35 -25 12 0 23 -4
23 -10 0 -5 7 -10 15 -10 8 0 15 5 15 10 0 6 -7 10 -15 10 -8 0 -15 5 -15 11
0 7 14 8 40 4 22 -4 40 -3 40 2 0 29 160 60 160 31 1 -18 50 40 50 58 0 8 -7
14 -15 14 -8 0 -15 5 -15 10 0 6 14 10 30 10 17 0 30 -5 30 -10 0 -6 19 -10
45 -8 25 2 45 5 45 8 0 11 -16 27 -33 33 -10 4 -15 11 -12 17 9 14 35 12 35
-2 1 -8 6 -5 15 5 7 10 24 18 37 17 13 -1 32 -2 43 -1 16 1 17 3 5 10 -8 6
-18 7 -22 5 -4 -3 -8 4 -8 16 0 11 8 24 18 28 20 8 69 44 108 79 14 13 29 23
34 23 5 0 14 8 19 18 5 10 22 24 38 32 15 8 39 25 53 36 14 12 39 33 55 48 17
14 24 26 17 26 -9 0 -7 8 7 26 12 15 21 32 21 39 0 7 9 15 20 18 11 3 18 1 15
-3 -3 -4 4 -6 15 -3 11 3 20 13 20 23 0 9 9 25 19 34 11 10 18 23 16 29 -6 17
15 40 50 56 17 8 24 16 18 18 -22 8 -16 54 8 60 12 3 18 11 15 19 -3 8 6 25
21 38 15 14 23 30 20 39 -4 10 2 17 19 21 14 4 24 14 24 24 0 10 6 24 12 30
10 10 10 17 -1 33 -12 21 -12 21 10 5 13 -9 26 -16 29 -16 3 0 16 18 30 40 14
22 33 43 42 46 25 7 23 34 -2 34 -33 0 -23 27 23 59 57 40 97 76 97 88 0 5 16
18 35 29 21 11 38 29 42 44 3 14 11 28 17 32 6 4 7 11 2 15 -5 4 -11 2 -13 -4
-5 -14 -33 -18 -33 -5 0 5 14 21 31 38 l30 29 -21 17 c-19 16 -20 19 -6 24 13
5 14 9 5 20 -6 8 -17 14 -24 14 -7 0 -16 8 -19 17 -4 10 -4 14 0 11 14 -14 34
22 32 56 -2 20 -5 36 -7 36 -2 0 -21 -18 -42 -40 -22 -22 -46 -40 -54 -40 -8
0 -15 -6 -15 -13 0 -14 -127 -147 -141 -147 -4 0 -13 -10 -20 -22 -11 -23 -77
-88 -88 -88 -4 0 -12 -13 -19 -30 -8 -16 -20 -30 -27 -30 -7 0 -15 -7 -19 -15
-3 -8 -15 -15 -26 -15 -17 0 -19 4 -14 26 5 20 4 25 -5 19 -8 -4 -14 1 -18 14
-6 23 -18 27 -28 11 -3 -6 -17 -7 -31 -4 -19 5 -24 2 -24 -13 0 -10 5 -24 12
-31 17 -17 3 -25 -20 -11 -11 7 -17 19 -15 30 6 22 -27 68 -48 69 -10 0 -19
-11 -23 -24 -3 -13 -13 -26 -21 -30 -9 -3 -14 -2 -11 2 2 4 1 14 -5 22 -6 11
-9 6 -9 -19 0 -28 -2 -32 -14 -21 -8 6 -45 13 -82 15 -59 2 -71 6 -89 29 -11
14 -28 26 -37 26 -9 0 -20 4 -23 10 -7 11 -67 9 -76 -3 -3 -4 -23 4 -43 18
-33 22 -45 25 -83 19 -30 -4 -47 -12 -50 -23 -6 -23 -50 -41 -100 -41 -24 0
-43 -3 -43 -7 0 -5 -16 -8 -36 -9 -20 0 -39 -6 -44 -13 -12 -21 -98 -13 -128
11 -7 7 -40 12 -73 12 -51 1 -62 5 -85 29 -24 26 -27 27 -43 13 -19 -17 -41
-21 -41 -7 0 14 -62 40 -79 33 -14 -5 -14 -4 -2 11 19 24 9 31 -43 29 -36 -2
-45 1 -49 18 -5 18 -12 20 -58 16 -56 -4 -70 -16 -47 -40 12 -11 17 -11 33 0
26 19 30 18 32 -14 1 -21 -3 -27 -20 -28 -12 -1 -32 -5 -44 -9 -30 -10 -65 27
-57 60 4 16 0 30 -10 40 -26 26 -20 30 49 29 60 0 65 1 59 19 -4 12 2 27 15
41 l21 23 -31 32 -31 32 2 -48 c2 -65 1 -70 -10 -53 -9 13 -13 12 -28 -8 -16
-21 -20 -22 -31 -8 -10 12 -9 20 3 45 9 17 25 35 36 41 11 6 20 17 20 25 0 21
-44 47 -77 45 -69 -5 -74 20 -8 47 42 17 45 20 45 56 0 20 -5 37 -11 37 -7 0
-8 14 -4 40 l7 40 -56 0 c-31 0 -56 4 -56 8 0 4 -15 12 -32 17 -25 8 -33 15
-32 33 0 12 -3 22 -8 22 -4 0 -8 -7 -8 -15 0 -8 -6 -15 -14 -15 -9 0 -14 9
-14 23 4 73 -3 97 -38 132 -20 21 -42 34 -50 31 -8 -3 -21 -3 -29 0 -12 5 -12
9 1 29 11 16 15 43 13 84 -1 34 1 64 4 68 4 3 7 14 7 24 0 10 11 25 23 34 13
8 29 26 35 40 8 16 20 25 35 25 14 0 40 15 61 36 28 27 43 35 59 30 12 -3 86
-9 165 -12 119 -5 146 -4 160 8 36 32 52 33 450 25 124 -3 166 -7 172 -17 7
-11 12 -11 22 -2 8 6 37 14 64 17 194 21 278 26 414 25 85 0 178 4 205 8 78
13 235 3 235 -15 0 -7 21 -23 46 -33 54 -23 54 -23 54 -9 0 17 -32 38 -57 39
-17 0 -23 6 -23 21 0 19 4 21 33 15 17 -3 37 -13 43 -21 19 -25 23 -17 7 15
-8 17 -12 36 -10 43 3 7 6 5 6 -5 1 -22 17 -24 25 -3 3 9 -4 21 -18 30 -13 9
-31 35 -40 59 -23 59 -57 81 -138 89 -37 3 -68 3 -70 -1 -2 -4 -16 -14 -33
-22 -16 -9 -34 -26 -40 -38 -5 -12 -15 -22 -22 -22 -6 0 -13 -5 -15 -12 -4
-12 -78 -3 -178 23 -225 58 -282 62 -409 29 -79 -20 -86 -20 -173 -5 -173 30
-229 30 -305 4 -37 -13 -70 -27 -73 -30 -3 -4 -32 -9 -65 -12 -33 -3 -73 -8
-89 -12 -21 -6 -27 -5 -22 4 4 6 2 11 -3 11 -6 0 -11 -4 -11 -10 0 -5 -7 -7
-15 -4 -8 4 -15 12 -15 19 0 8 -12 23 -27 34 -16 12 -34 26 -41 32 -8 7 -34 9
-63 7 -26 -3 -46 -1 -43 4 3 4 -4 8 -15 8 -12 0 -21 -4 -21 -8 0 -10 -103 -7
-135 3 -15 4 -23 0 -30 -17z m-20 -298 c3 -5 -3 -10 -15 -10 -12 0 -18 5 -15
10 3 6 10 10 15 10 5 0 12 -4 15 -10z m-288 -402 c-3 -8 -6 -5 -6 6 -1 11 2
17 5 13 3 -3 4 -12 1 -19z m426 -445 c-7 -2 -19 -2 -25 0 -7 3 -2 5 12 5 14 0
19 -2 13 -5z m-27 -58 c-8 -8 -18 -15 -22 -15 -3 0 -1 7 6 15 7 8 17 15 22 15
5 0 3 -7 -6 -15z m-139 -91 c-3 -3 -12 -4 -19 -1 -8 3 -5 6 6 6 11 1 17 -2 13
-5z m18 -104 c-3 -5 -16 -10 -28 -10 -18 0 -19 2 -7 10 20 13 43 13 35 0z
m389 -15 c-25 -19 -34 -19 -34 0 0 10 10 15 27 15 26 0 26 -1 7 -15z m-264
-15 c-8 -5 -19 -10 -25 -10 -5 0 -3 5 5 10 8 5 20 10 25 10 6 0 3 -5 -5 -10z
m1725 -99 c7 -12 -12 -24 -25 -16 -11 7 -4 25 10 25 5 0 11 -4 15 -9z m-1315
-1086 c10 -12 10 -15 -4 -15 -9 0 -16 7 -16 15 0 8 2 15 4 15 2 0 9 -7 16 -15z
m140 -89 c0 -15 -21 -26 -51 -26 -28 0 -23 17 9 28 37 14 42 14 42 -2z m63
-21 c8 -18 -8 -28 -33 -20 -11 4 -17 12 -13 21 7 18 39 18 46 -1z"/>
<path d="M4370 3654 c-14 -36 -13 -44 11 -65 11 -10 20 -28 19 -41 -5 -55 0
-77 20 -83 11 -3 20 -14 20 -24 0 -25 20 -41 51 -41 19 0 33 -10 50 -35 13
-19 32 -35 42 -35 34 0 57 -20 57 -49 0 -24 4 -28 28 -29 15 0 51 -6 79 -12
47 -11 55 -11 79 6 15 11 35 24 45 30 10 6 28 23 39 37 21 27 50 36 50 17 0
-5 5 -10 10 -10 6 0 10 7 10 16 0 22 39 75 53 73 26 -3 37 2 37 15 0 7 16 21
36 31 43 20 52 40 29 65 -9 10 -14 24 -10 29 3 6 3 30 0 54 -6 41 -8 42 -45
43 -39 1 -39 1 -38 -38 1 -50 -5 -55 -31 -26 -20 21 -21 23 -5 35 16 12 14 13
-13 13 -18 0 -38 -7 -47 -15 -9 -9 -34 -15 -65 -15 -39 0 -51 4 -51 15 0 20
-49 20 -56 0 -5 -12 -9 -12 -29 1 -15 10 -66 19 -132 25 -186 15 -208 19 -211
29 -6 18 -22 10 -32 -16z"/>
<path d="M3308 3644 c-5 -4 -8 -16 -8 -28 0 -14 3 -17 11 -9 6 6 9 19 7 28 -1
9 -6 13 -10 9z"/>
<path d="M3405 3350 c3 -5 8 -10 11 -10 2 0 4 5 4 10 0 6 -5 10 -11 10 -5 0
-7 -4 -4 -10z"/>
<path d="M3840 3339 c0 -11 5 -17 10 -14 6 3 10 13 10 21 0 8 -4 14 -10 14 -5
0 -10 -9 -10 -21z"/>
<path d="M3540 3080 c0 -5 7 -10 15 -10 8 0 15 5 15 10 0 6 -7 10 -15 10 -8 0
-15 -4 -15 -10z"/>
<path d="M3356 3063 c-11 -11 -6 -23 9 -23 8 0 15 4 15 9 0 13 -16 22 -24 14z"/>
<path d="M3512 2972 c4 -21 38 -29 38 -9 0 8 -9 17 -21 20 -15 4 -19 1 -17
-11z"/>
<path d="M3002 2923 c-13 -3 -32 -12 -43 -21 -11 -9 -29 -19 -42 -22 -12 -3
-26 -16 -32 -28 -6 -13 -19 -22 -33 -22 -33 0 -60 -20 -55 -41 4 -12 -2 -18
-19 -21 -17 -2 -23 -9 -22 -25 0 -18 -5 -23 -23 -23 -13 0 -30 -6 -37 -12 -12
-11 -10 -15 8 -25 21 -11 20 -12 -9 -22 -77 -28 -106 -44 -93 -53 7 -4 20 -8
28 -8 13 0 13 2 0 11 -12 9 -12 10 3 5 10 -3 30 -6 43 -6 15 0 24 -6 24 -15 0
-12 -4 -13 -19 -4 -15 10 -30 7 -80 -17 -33 -16 -61 -32 -61 -36 0 -5 -5 -8
-11 -8 -15 0 -119 -50 -154 -74 -29 -21 -65 -55 -65 -63 0 -5 63 30 70 39 3 3
23 9 45 13 22 4 63 22 90 40 51 33 135 56 135 36 0 -6 -7 -7 -17 -4 -11 4 -14
3 -9 -5 5 -8 0 -12 -13 -12 -22 0 -204 -88 -209 -101 -2 -5 -10 -9 -17 -9 -7
0 -34 -16 -59 -35 -26 -19 -48 -35 -51 -35 -10 0 -5 36 6 47 19 19 0 33 -42
33 -41 0 -89 -24 -89 -44 0 -7 3 -6 9 2 10 17 83 12 89 -5 2 -9 -8 -13 -32
-13 -23 0 -52 -10 -76 -26 -47 -32 -46 -41 4 -24 49 16 82 8 41 -10 -76 -33
-101 -47 -127 -73 -16 -16 -44 -35 -63 -42 -18 -8 -36 -19 -39 -24 -6 -9 -120
-71 -131 -71 -18 0 1 20 35 36 22 10 40 22 40 27 0 4 7 7 15 7 28 0 114 64
102 76 -3 3 -28 -7 -56 -23 -29 -15 -64 -34 -79 -42 -15 -8 -29 -17 -32 -21
-7 -9 -237 -120 -250 -120 -6 0 -24 -7 -40 -15 -17 -9 -30 -11 -30 -5 0 5 7
10 15 10 8 0 15 5 15 10 0 6 7 10 15 10 8 0 46 15 85 34 38 19 84 37 100 41
17 4 30 11 30 16 0 5 7 9 15 9 8 0 15 4 15 8 0 5 26 22 57 37 52 27 120 73
183 124 14 11 34 27 45 35 11 8 18 17 15 19 -3 3 -42 -19 -88 -49 -45 -30 -84
-54 -87 -54 -2 0 -43 -22 -91 -50 -48 -27 -95 -50 -105 -50 -11 0 -19 -3 -19
-7 0 -8 -74 -47 -145 -77 -22 -10 -51 -22 -65 -28 -30 -13 -42 -18 -145 -59
-44 -18 -89 -39 -100 -46 -19 -13 -18 -14 10 -7 17 4 42 13 57 20 15 8 38 14
51 14 12 0 27 4 33 9 20 19 85 34 97 22 14 -14 81 -15 72 -1 -3 6 3 10 14 10
10 0 48 15 83 33 63 34 102 40 74 11 -8 -8 -19 -14 -25 -14 -6 0 -27 -7 -48
-16 -21 -9 -51 -22 -68 -29 -75 -31 -91 -38 -107 -46 -10 -5 -25 -9 -33 -9 -9
0 -37 -11 -63 -24 -26 -13 -63 -27 -82 -31 -19 -4 -41 -11 -50 -15 -8 -4 -26
-12 -40 -17 -14 -6 -36 -15 -50 -21 -14 -7 -38 -16 -54 -22 -57 -21 -16 -21
65 -1 94 24 103 25 94 11 -3 -5 -19 -10 -35 -10 -16 0 -31 -4 -35 -9 -3 -5
-30 -13 -60 -16 -30 -4 -55 -11 -55 -16 0 -5 -10 -9 -23 -9 -13 0 -27 -3 -31
-7 -4 -5 -26 -16 -49 -26 l-42 -17 62 3 c68 4 73 0 21 -13 -18 -5 -60 -18 -93
-30 -115 -41 -129 -50 -105 -65 19 -12 -1 -25 -37 -25 -59 0 -253 -71 -253
-92 0 -11 14 -10 27 3 6 6 21 9 34 6 l24 -4 -23 -8 c-12 -4 -22 -11 -22 -16 0
-5 -9 -9 -20 -9 -19 0 -61 -20 -125 -60 -16 -10 -38 -19 -47 -19 -10 -1 -18
-5 -18 -11 0 -5 -9 -10 -19 -10 -11 0 -32 -6 -48 -14 -56 -29 -101 -46 -121
-46 -11 0 -22 -3 -24 -7 -6 -14 -78 -43 -108 -43 -16 0 -32 -4 -35 -10 -3 -5
-15 -10 -26 -10 -10 0 -19 -4 -19 -10 0 -5 11 -10 24 -10 14 0 28 5 31 10 3 6
14 10 24 10 10 0 40 8 67 19 184 70 276 102 281 97 8 -8 -166 -83 -212 -92
-20 -3 -38 -10 -41 -15 -3 -5 -14 -9 -25 -9 -10 0 -19 -4 -19 -10 0 -5 -17
-12 -37 -15 -21 -4 -50 -11 -65 -17 l-28 -10 0 -579 0 -579 2330 0 c1424 0
2330 4 2330 9 0 11 -56 41 -76 41 -7 0 -29 11 -49 24 -20 14 -52 30 -73 37
-20 7 -54 25 -76 40 -21 16 -43 29 -48 29 -9 0 -62 35 -86 57 -7 7 -20 13 -27
13 -8 0 -31 11 -51 25 -20 14 -43 25 -50 25 -7 0 -27 13 -44 30 -17 16 -35 30
-40 30 -5 0 -29 20 -54 45 -26 25 -50 45 -54 45 -5 0 -14 11 -21 24 -7 13 -30
34 -51 47 -21 13 -48 39 -60 57 -13 17 -26 32 -31 32 -10 0 -40 31 -94 96 -22
27 -52 61 -67 77 -16 16 -28 32 -28 36 0 4 -17 27 -37 51 -20 24 -47 64 -60
89 -29 58 -41 76 -135 200 -43 57 -78 107 -78 112 0 5 -4 9 -8 9 -5 0 -19 20
-31 45 -12 25 -33 58 -45 73 -13 15 -29 38 -36 51 -7 14 -17 30 -21 35 -38 46
-70 92 -81 117 -7 16 -17 29 -21 29 -4 0 -19 24 -33 54 -13 30 -31 60 -39 66
-8 7 -15 16 -15 21 0 5 -27 64 -59 131 -93 194 -133 321 -139 449 -7 150 8
188 113 294 44 44 100 96 124 115 71 56 72 58 69 113 -3 52 -7 57 -46 50z
m-442 -506 c0 -13 -57 -43 -66 -34 -3 2 10 14 28 25 41 25 38 24 38 9z m-160
-81 c0 -2 -17 -14 -37 -27 -21 -12 -48 -31 -60 -42 -21 -18 -23 -19 -23 -3 0
9 8 20 18 23 9 4 21 13 25 20 12 20 77 44 77 29z m-290 -145 c0 -5 -8 -11 -17
-15 -10 -3 -24 -9 -30 -12 -7 -3 -13 -1 -13 5 0 7 10 16 23 21 29 12 37 12 37
1z m-97 -71 c-12 -10 -24 -16 -27 -13 -3 3 4 14 16 25 12 10 24 16 26 13 3 -3
-4 -14 -15 -25z m-213 -60 c0 -5 -2 -10 -4 -10 -3 0 -8 5 -11 10 -3 6 -1 10 4
10 6 0 11 -4 11 -10z m50 -34 c-8 -8 -26 -17 -40 -20 -23 -5 -23 -5 3 7 15 7
24 16 21 20 -4 4 1 7 11 7 17 0 17 -2 5 -14z m-110 -51 c0 -5 -68 -35 -79 -35
-8 1 61 39 72 40 4 0 7 -2 7 -5z m-155 -62 c-11 -3 -32 -14 -47 -24 -14 -11
-39 -19 -55 -18 l-28 1 30 10 c17 6 32 14 35 18 6 9 38 18 65 18 l20 0 -20 -5z
m-195 -138 c-46 -18 -74 -18 -35 0 17 7 39 13 50 13 13 0 7 -5 -15 -13z m-635
-273 c-11 -2 -37 -7 -58 -12 -31 -7 -36 -6 -27 5 12 15 65 24 90 15 11 -3 10
-5 -5 -8z m-610 -352 c-3 -5 -10 -10 -16 -10 -5 0 -9 5 -9 10 0 6 7 10 16 10
8 0 12 -4 9 -10z m-58 -16 c-3 -3 -12 -4 -19 -1 -8 3 -5 6 6 6 11 1 17 -2 13
-5z"/>
<path d="M3508 2873 c6 -2 18 -2 25 0 6 3 1 5 -13 5 -14 0 -19 -2 -12 -5z"/>
<path d="M6627 2873 c-4 -3 -7 -17 -7 -30 0 -16 21 -40 78 -85 96 -79 147
-129 165 -165 31 -61 48 -133 48 -209 1 -78 -4 -106 -36 -214 -8 -30 -20 -68
-24 -85 -13 -45 -100 -222 -117 -235 -8 -7 -14 -18 -14 -24 0 -6 -14 -29 -30
-50 -17 -22 -30 -45 -30 -51 0 -6 -8 -20 -19 -31 -10 -11 -24 -31 -31 -45 -11
-21 -134 -206 -185 -279 -32 -46 -62 -81 -222 -267 -84 -97 -153 -179 -153
-182 0 -4 -16 -15 -35 -25 -19 -11 -35 -23 -35 -27 0 -9 -174 -189 -183 -189
-3 0 -36 -31 -74 -69 -38 -38 -81 -75 -95 -82 -27 -14 -69 -48 -161 -129 -29
-25 -64 -51 -78 -57 -15 -6 -42 -24 -60 -40 -19 -16 -45 -34 -59 -41 -14 -7
-42 -28 -64 -46 -21 -19 -51 -36 -66 -39 -15 -3 -41 -17 -57 -31 -16 -14 -49
-32 -74 -42 -24 -10 -57 -26 -73 -37 -16 -12 -36 -21 -45 -22 -40 -4 -81 -18
-92 -31 -10 -12 286 -14 2250 -14 l2261 0 0 280 0 280 -27 0 c-42 0 -110 23
-136 45 -19 17 -20 20 -5 23 10 2 28 -4 40 -12 28 -20 98 -22 98 -3 0 19 -44
37 -90 37 -46 0 -52 7 -44 50 7 31 8 32 45 26 132 -20 119 -22 119 14 0 22 -4
31 -13 27 -7 -3 -24 1 -38 8 -20 12 -22 15 -7 20 9 4 26 2 37 -5 l21 -11 0
256 c0 220 -2 255 -15 255 -8 0 -15 5 -15 10 0 6 7 10 15 10 8 0 15 6 15 13 0
14 -54 37 -88 37 -12 0 -22 4 -22 8 0 4 -35 14 -77 21 -43 7 -94 20 -113 29
l-35 16 29 4 c16 2 32 -1 35 -6 3 -5 26 -12 51 -14 25 -3 53 -9 63 -13 9 -4
17 -3 17 1 0 16 -180 74 -228 74 -21 0 -22 1 -8 16 9 8 20 12 26 9 5 -3 10 -3
10 2 0 4 -20 16 -45 26 -52 22 -59 36 -15 29 18 -3 30 0 30 7 0 6 -6 11 -13
11 -7 0 -48 24 -91 53 -43 28 -92 59 -109 68 -30 16 -30 17 -9 23 28 9 28 33
0 42 -12 3 -28 13 -36 20 -7 8 -25 17 -40 20 -15 3 -44 12 -65 20 -20 8 -48
14 -60 14 -13 0 -27 4 -33 9 -5 5 -27 11 -49 14 -27 2 -19 4 25 5 36 1 84 -3
108 -7 23 -5 42 -7 42 -5 0 13 -145 61 -203 68 -12 1 -29 5 -37 8 -8 4 -32 9
-52 13 -21 3 -40 11 -44 17 -5 7 4 9 27 4 79 -15 162 -27 172 -23 14 4 -126
48 -177 54 -22 3 -48 11 -56 19 -21 18 -192 104 -207 104 -7 0 -13 4 -13 9 0
4 -21 16 -47 26 -27 10 -50 21 -53 25 -3 3 -31 19 -63 35 -32 16 -60 33 -63
37 -8 13 -34 9 -34 -5 0 -14 18 -26 108 -74 83 -44 102 -56 102 -66 0 -4 -41
13 -90 39 -50 25 -93 44 -96 41 -9 -9 6 -27 22 -27 8 0 14 -4 14 -8 0 -5 34
-30 75 -57 41 -26 74 -49 73 -50 -2 -2 -18 0 -37 2 -23 4 -29 8 -20 14 11 7
10 9 -4 9 -11 0 -32 9 -49 21 -16 12 -31 19 -34 17 -8 -9 48 -58 72 -64 13 -3
21 -10 18 -15 -3 -5 12 -16 33 -25 21 -9 59 -27 84 -40 26 -13 56 -24 66 -24
10 0 23 -4 29 -9 5 -5 27 -12 49 -15 29 -5 36 -4 25 3 -13 9 -13 11 2 11 29 0
47 -11 41 -26 -6 -17 24 -43 50 -44 11 0 32 -10 49 -21 22 -16 26 -24 17 -30
-11 -6 -10 -9 4 -15 9 -3 17 -12 17 -19 0 -6 10 -17 23 -24 22 -11 22 -11 -3
-5 -17 4 -21 2 -11 -4 11 -8 11 -11 0 -16 -8 -3 -4 -3 8 -1 12 3 24 1 28 -5
12 -19 -46 -10 -91 15 -25 14 -52 25 -62 25 -9 0 -25 7 -35 14 -16 13 -13 14
32 12 64 -4 66 8 4 23 -27 7 -56 17 -65 22 -10 5 -27 9 -38 9 -12 0 -18 5 -15
10 3 6 25 10 48 11 l42 0 -40 15 c-128 50 -235 97 -241 105 -3 5 -12 9 -19 9
-24 0 -118 62 -150 100 -44 52 -107 111 -154 145 -23 17 -55 41 -71 53 -17 13
-42 27 -57 32 l-28 8 33 1 c18 1 47 -6 63 -15 17 -8 33 -13 36 -10 8 8 -7 26
-30 37 -12 6 -40 21 -62 34 -22 13 -51 24 -65 24 -38 2 -3 21 38 21 52 0 28
18 -34 26 -36 4 -65 2 -82 -5 -22 -10 -30 -9 -53 8 -16 12 -33 21 -39 21 -5 0
-10 3 -10 8 0 12 -50 31 -66 25 -8 -3 -14 0 -14 6 0 6 -18 11 -40 11 -23 0
-61 10 -88 24 -27 13 -65 27 -85 31 -41 8 -65 29 -46 40 6 4 29 2 50 -5 22 -7
42 -10 46 -6 18 18 -75 48 -120 39 -29 -6 -30 -5 -23 21 5 22 2 33 -17 50 -14
13 -32 26 -41 29 -9 4 -16 13 -16 22 0 9 -9 15 -24 15 -18 0 -25 6 -28 23 -2
12 -13 26 -26 32 -12 5 -25 18 -28 27 -4 13 -16 18 -43 18 -21 0 -41 -3 -44
-7z m425 -364 c34 -11 74 -29 88 -38 14 -10 32 -21 40 -25 8 -3 -5 -4 -29 -2
-24 3 -47 8 -50 13 -7 10 -64 29 -126 42 -39 8 -39 9 -15 19 14 6 26 11 28 11
1 1 30 -8 64 -20z m28 -93 c18 -9 38 -16 45 -16 7 0 20 -9 30 -20 10 -11 24
-20 32 -20 7 0 13 -4 13 -10 0 -15 -9 -12 -95 30 -51 26 -94 40 -118 40 -26 0
-36 4 -31 11 9 15 82 6 124 -15z m235 4 c10 -11 24 -20 30 -20 7 0 15 -7 19
-15 6 -16 -19 -22 -28 -6 -8 13 -100 41 -138 42 -51 1 -4 17 53 18 34 1 51 -4
64 -19z m-267 -86 c62 -18 99 -44 63 -44 -11 0 -22 4 -25 9 -3 4 -33 16 -66
25 -33 9 -60 19 -60 22 0 8 33 4 88 -12z m254 -5 c13 -6 31 -21 40 -34 l17
-23 -52 21 c-28 12 -54 25 -57 28 -3 3 -12 9 -20 12 -8 3 -1 6 17 6 18 1 42
-4 55 -10z m-19 -103 c4 -10 0 -12 -14 -9 -22 6 -26 23 -5 23 8 0 16 -6 19
-14z m312 -6 c20 -11 42 -20 50 -20 8 0 15 -3 15 -7 0 -5 16 -19 36 -32 20
-14 57 -52 82 -85 25 -34 53 -66 62 -73 13 -11 13 -12 -2 -13 -19 0 -34 13
-67 61 -42 61 -194 167 -242 170 -11 0 6 11 28 18 1 1 18 -8 38 -19z m35 -105
c32 -17 42 -32 13 -20 -10 4 -34 14 -53 21 -28 10 -30 13 -12 14 13 0 36 -7
52 -15z m472 -73 c-13 -4 -82 27 -82 38 0 5 20 -1 45 -13 25 -12 41 -23 37
-25z m-372 3 c32 -34 18 -43 -19 -12 -16 13 -27 28 -24 31 11 10 19 7 43 -19z
m301 -26 c16 -11 44 -25 62 -30 18 -5 43 -18 57 -29 23 -18 24 -20 5 -20 -11
0 -27 9 -35 20 -8 11 -20 20 -27 20 -20 0 -113 43 -113 52 0 14 21 9 51 -13z
m205 -29 c15 -6 24 -13 22 -16 -3 -3 -21 2 -39 10 -39 16 -24 21 17 6z m-325
-36 c35 -27 33 -28 -13 -5 -16 8 -28 18 -28 23 0 12 3 11 41 -18z m-96 -6 c14
-6 25 -15 25 -20 0 -14 -20 -9 -42 12 -25 23 -20 25 17 8z m185 -38 c0 -5 -7
-7 -15 -4 -8 4 -15 8 -15 10 0 2 7 4 15 4 8 0 15 -4 15 -10z m65 -30 c3 -5 2
-10 -4 -10 -5 0 -13 5 -16 10 -3 6 -2 10 4 10 5 0 13 -4 16 -10z m298 3 c-7
-2 -19 -2 -25 0 -7 3 -2 5 12 5 14 0 19 -2 13 -5z m64 -79 c-3 -3 -12 -4 -19
-1 -8 3 -5 6 6 6 11 1 17 -2 13 -5z m218 -35 c28 -7 57 -19 65 -27 13 -13 10
-14 -25 -8 -22 4 -44 12 -49 17 -6 5 -17 9 -25 9 -9 0 -25 8 -36 16 l-20 16
20 -6 c11 -3 43 -11 70 -17z m-332 -76 c-7 -2 -21 -2 -30 0 -10 3 -4 5 12 5
17 0 24 -2 18 -5z m114 1 c-3 -3 -12 -4 -19 -1 -8 3 -5 6 6 6 11 1 17 -2 13
-5z m-62 -14 c3 -5 15 -10 25 -10 10 0 22 -5 25 -11 13 -20 -4 -21 -32 -2 -15
11 -35 23 -43 26 -12 4 -12 6 2 6 9 1 20 -3 23 -9z m103 -62 c7 -7 12 -16 12
-20 0 -15 -15 -8 -28 12 -13 22 -3 27 16 8z m792 -313 c17 -20 -9 -21 -36 0
-19 14 -19 14 2 15 12 0 27 -7 34 -15z m-1142 -226 c30 -10 49 -44 31 -55 -5
-3 -9 -13 -9 -23 0 -31 -21 -39 -122 -46 l-98 -7 0 43 c0 63 9 87 34 92 44 9
134 7 164 -4z m126 -34 c9 -25 -6 -106 -21 -112 -26 -10 -43 17 -37 61 3 22 7
47 10 54 5 17 41 15 48 -3z m92 -63 c13 -40 34 -82 43 -82 5 0 16 6 24 14 23
23 77 25 77 2 0 -16 -77 -76 -96 -76 -42 0 -65 25 -85 91 -11 38 -18 73 -14
79 8 14 44 -6 51 -28z m394 -62 c0 -5 -11 -10 -25 -10 -14 0 -25 5 -25 10 0 6
11 10 25 10 14 0 25 -4 25 -10z m90 1 c0 -5 10 -12 23 -16 19 -6 20 -8 4 -12
-10 -3 -25 -2 -33 1 -16 6 -19 36 -4 36 6 0 10 -4 10 -9z m-254 -50 c10 -11
24 -16 35 -14 11 3 19 1 19 -5 0 -18 -75 -92 -93 -92 -24 0 -21 10 16 48 32
35 16 31 -32 -7 -20 -15 -29 -17 -48 -8 -29 13 -29 28 -2 47 12 8 27 20 33 26
11 11 34 22 49 23 4 1 14 -7 23 -18z m393 -4 c6 -8 8 -17 5 -20 -8 -7 -54 14
-54 25 0 13 36 9 49 -5z m-122 -41 c15 -15 -15 -23 -74 -21 -38 2 -54 1 -38
-1 36 -6 92 -31 101 -45 3 -6 3 -21 0 -35 -6 -23 -10 -24 -77 -24 -68 0 -109
11 -109 30 0 5 30 6 70 3 59 -5 70 -3 70 10 0 11 -16 17 -60 22 -33 4 -63 11
-66 17 -12 19 6 57 29 60 25 4 147 -9 154 -16z m223 14 c12 -7 12 -12 3 -21
-9 -9 -16 -9 -28 1 -29 24 -9 42 25 20z m119 -24 c9 -10 8 -15 -4 -20 -21 -7
-45 3 -45 20 0 18 34 18 49 0z m-135 -55 c22 -9 24 -15 24 -65 -1 -46 -4 -57
-20 -62 -11 -3 -27 0 -36 8 -28 22 -61 38 -79 38 -41 1 -70 48 -40 67 10 6 57
15 114 22 6 0 23 -3 37 -8z"/>
<path d="M7979 1036 c-20 -43 -6 -58 48 -50 57 8 66 14 61 45 -3 21 -9 24 -50
27 -43 3 -49 0 -59 -22z"/>
<path d="M8960 721 c-13 -9 -13 -11 0 -15 35 -12 55 -10 55 4 0 18 -34 24 -55
11z"/>
<path d="M3640 2810 c0 -5 5 -10 10 -10 6 0 10 5 10 10 0 6 -4 10 -10 10 -5 0
-10 -4 -10 -10z"/>
<path d="M2478 2567 c-45 -20 -62 -37 -38 -37 15 0 99 41 106 51 9 15 -18 9
-68 -14z"/>
<path d="M7110 2572 c0 -4 9 -15 20 -25 22 -18 70 -23 70 -7 0 6 7 10 15 10
23 0 18 17 -7 24 -33 8 -98 7 -98 -2z"/>
<path d="M5960 2560 c-8 -5 -11 -12 -7 -17 5 -4 11 -3 15 3 4 6 14 14 22 17
13 5 13 5 0 6 -8 0 -22 -3 -30 -9z"/>
<path d="M2260 2435 c7 -8 18 -15 25 -15 6 0 12 7 12 15 0 9 -10 15 -25 15
-21 0 -22 -2 -12 -15z"/>
<path d="M1465 1950 c-3 -5 -2 -10 4 -10 5 0 13 5 16 10 3 6 2 10 -4 10 -5 0
-13 -4 -16 -10z"/>
<path d="M1395 1931 c-3 -5 -20 -13 -38 -17 -39 -8 -72 -30 -59 -38 13 -8 42
3 42 16 0 6 7 8 15 5 8 -4 27 0 42 8 15 8 35 15 43 16 10 0 8 3 -5 9 -27 12
-33 12 -40 1z"/>
<path d="M3812 1904 c-37 -16 -38 -37 -1 -43 13 -1 27 -8 31 -15 4 -6 8 8 8
32 0 23 -1 42 -2 41 -2 0 -18 -7 -36 -15z"/>
<path d="M936 1675 c-3 -9 0 -15 9 -15 8 0 15 7 15 15 0 8 -4 15 -9 15 -5 0
-11 -7 -15 -15z"/>
<path d="M790 1590 c-18 -12 -2 -12 25 0 13 6 15 9 5 9 -8 0 -22 -4 -30 -9z"/>
<path d="M4000 1487 c0 -19 25 -29 56 -21 31 8 31 24 0 24 -13 0 -31 3 -40 6
-10 4 -16 1 -16 -9z"/>
<path d="M536 1455 c-11 -8 -27 -15 -37 -15 -9 0 -22 -7 -29 -15 -9 -10 -9
-15 -1 -15 6 0 11 4 11 9 0 5 18 12 40 16 25 4 40 12 40 21 0 17 0 17 -24 -1z"/>
<path d="M4101 1420 c-8 -4 -10 -13 -7 -19 9 -14 56 -15 56 -1 0 15 -35 29
-49 20z"/>
<path d="M4775 1403 c-27 -14 -61 -29 -75 -33 -24 -7 -24 -8 -5 -16 11 -4 23
-11 26 -16 3 -5 16 1 29 12 13 11 29 20 37 20 7 0 13 5 13 10 0 6 12 10 26 10
18 0 25 5 22 17 -5 25 -19 25 -73 -4z"/>
<path d="M9228 1393 c7 -3 16 -2 19 1 4 3 -2 6 -13 5 -11 0 -14 -3 -6 -6z"/>
<path d="M4560 1370 c0 -19 3 -21 12 -12 9 9 9 15 0 24 -9 9 -12 7 -12 -12z"/>
<path d="M308 1353 c7 -3 16 -2 19 1 4 3 -2 6 -13 5 -11 0 -14 -3 -6 -6z"/>
<path d="M4790 1334 c0 -8 5 -12 10 -9 6 3 10 10 10 16 0 5 -4 9 -10 9 -5 0
-10 -7 -10 -16z"/>
<path d="M9200 692 c0 -7 84 -42 103 -42 4 0 7 7 7 15 0 11 -11 15 -36 15 -19
0 -44 5 -55 10 -10 6 -19 7 -19 2z"/>
</g>
</svg>
