<?xml version="1.0" standalone="no"?>
<!DOCTYPE svg PUBLIC "-//W3C//DTD SVG 20010904//EN"
 "http://www.w3.org/TR/2001/REC-SVG-20010904/DTD/svg10.dtd">
<svg version="1.0" xmlns="http://www.w3.org/2000/svg"
 width="540.000000pt" height="540.000000pt" viewBox="0 0 540.000000 540.000000"
 preserveAspectRatio="xMidYMid meet">

<g transform="translate(0.000000,540.000000) scale(0.100000,-0.100000)"
fill="#000000" stroke="none">
<path d="M2495 5090 c-22 -4 -86 -17 -142 -29 -57 -12 -108 -19 -115 -15 -7 4
-8 3 -4 -5 4 -6 0 -14 -11 -18 -10 -4 -40 -21 -68 -39 -27 -17 -61 -35 -74
-39 -13 -4 -67 -49 -119 -101 -57 -55 -105 -94 -117 -94 -15 0 -16 -3 -7 -9
10 -6 5 -17 -23 -47 -36 -37 -95 -119 -95 -131 0 -3 -13 -33 -28 -67 -78 -167
-75 -155 -78 -358 -1 -110 2 -188 7 -188 6 0 6 -7 1 -17 -5 -10 -10 -38 -11
-63 -1 -25 -3 -52 -4 -60 -3 -25 15 -163 24 -188 5 -12 9 -52 10 -88 1 -35 6
-67 10 -70 5 -3 9 -21 9 -41 l0 -36 -23 21 c-28 27 -84 45 -104 34 -11 -7 -10
-13 7 -32 11 -13 23 -21 26 -18 2 3 22 -11 42 -32 21 -20 46 -41 55 -46 10 -6
24 -34 32 -63 14 -53 11 -86 -6 -75 -5 3 -9 0 -9 -5 0 -6 -9 -11 -21 -11 -23
0 -72 -34 -62 -43 3 -4 1 -13 -5 -20 -7 -8 -9 -16 -7 -19 3 -3 8 -23 10 -44 5
-42 33 -115 49 -125 4 -4 5 -12 2 -18 -4 -6 -2 -11 3 -11 6 0 11 5 11 11 0 8
5 8 15 -1 8 -7 15 -18 15 -26 0 -7 11 -25 25 -40 14 -15 24 -32 23 -38 0 -6 3
-24 7 -41 l9 -30 7 34 c4 18 6 90 4 160 -4 160 20 352 49 390 7 10 8 15 1 18
-12 4 -7 83 5 83 4 0 11 -11 14 -25 4 -14 11 -23 16 -20 6 4 7 12 3 18 -4 7
-8 31 -9 55 -1 33 3 46 19 57 30 21 34 19 40 -22 5 -28 1 -48 -14 -77 -15 -30
-17 -37 -5 -33 12 5 12 -1 -2 -39 -10 -28 -21 -43 -29 -39 -10 3 -11 -3 -7
-22 5 -20 4 -24 -6 -18 -9 5 -11 4 -6 -3 4 -7 14 -12 22 -12 10 0 13 -6 10
-18 -5 -15 -1 -17 27 -14 22 2 39 -2 50 -12 8 -9 19 -16 24 -16 5 0 26 -18 47
-40 21 -23 43 -39 49 -37 5 1 20 -6 32 -17 13 -11 38 -21 57 -23 18 -1 40 -3
48 -4 8 -1 31 -1 50 0 27 1 31 4 20 11 -8 5 -29 10 -46 10 -17 0 -34 3 -37 7
-13 12 15 33 39 28 13 -3 35 -7 49 -10 14 -3 25 -12 25 -21 0 -17 50 -16 51 1
1 15 20 35 33 35 6 0 4 -5 -4 -10 -20 -13 1 -13 34 0 32 12 34 38 4 38 -13 1
-59 1 -102 1 -69 0 -84 4 -118 27 -44 31 -45 34 -19 65 l19 24 7 -27 c9 -36
46 -68 87 -74 30 -5 38 -2 61 26 16 18 27 44 27 61 0 16 4 29 10 29 13 0 50
-41 50 -57 0 -7 11 -13 27 -13 25 0 26 -1 8 -14 -11 -8 -26 -11 -34 -8 -9 3
-12 1 -7 -6 4 -7 14 -12 22 -12 8 0 14 -5 14 -11 0 -5 5 -7 12 -3 8 5 9 -6 5
-40 -6 -39 -4 -48 11 -53 9 -4 19 -10 22 -14 3 -3 19 -9 35 -13 48 -10 58 17
61 159 4 186 -4 222 -55 283 -35 41 -50 52 -73 52 -16 0 -41 6 -56 14 -15 7
-44 16 -64 20 -21 4 -38 11 -38 15 0 12 -71 21 -162 20 -49 0 -78 4 -78 10 0
6 -15 11 -34 11 -30 0 -34 3 -39 33 -15 88 -26 125 -43 155 -14 24 -16 34 -7
40 8 5 11 47 10 140 -2 99 1 131 10 128 8 -3 10 1 6 11 -5 13 -2 15 11 10 10
-4 15 -3 11 3 -8 13 -11 13 62 -10 58 -18 67 -18 130 -5 37 8 77 15 89 15 28
0 114 45 140 73 11 12 31 31 45 42 l24 20 -19 -23 c-29 -34 -14 -35 25 -2 22
19 45 29 67 30 17 0 32 4 32 9 0 8 61 34 82 36 3 0 10 3 14 8 4 4 26 7 48 7
23 0 59 5 81 12 22 6 48 10 58 9 10 -1 29 5 43 13 13 9 24 12 24 8 0 -14 54
-1 64 16 7 12 10 12 17 1 6 -11 14 -11 42 -1 75 27 269 -6 332 -58 11 -9 31
-22 45 -28 40 -20 110 -173 120 -262 8 -65 -1 -210 -14 -241 -9 -21 10 -169
23 -182 6 -6 11 -24 11 -39 0 -15 5 -28 11 -28 18 0 37 -61 49 -160 35 -285
39 -328 33 -441 -4 -80 -3 -119 4 -119 17 0 23 26 23 92 0 55 17 97 34 81 3
-4 6 2 6 13 0 16 2 17 10 4 7 -11 10 -8 10 16 0 30 -28 74 -46 74 -5 0 -7 32
-4 71 4 59 9 74 29 90 18 15 20 20 8 25 -15 5 -12 29 11 99 19 54 53 329 53
416 0 46 1 127 2 179 2 52 0 104 -3 115 -4 11 -4 29 0 40 4 12 2 32 -7 48 -8
15 -12 36 -8 46 3 9 -3 26 -14 37 -20 22 -36 62 -33 80 2 10 -88 49 -131 56
-16 3 -15 8 11 43 48 67 54 98 32 159 -17 44 -31 61 -90 105 -39 28 -70 56
-70 61 0 6 -8 10 -17 11 -11 0 -13 3 -6 6 11 4 -76 73 -91 73 -2 0 -36 18 -74
40 -39 23 -116 56 -172 75 -56 19 -107 38 -114 43 -38 30 -203 60 -366 68 -58
2 -114 6 -125 8 -11 2 -38 0 -60 -4z m-119 -915 c-29 -23 -112 -52 -122 -43
-5 5 32 32 72 52 11 6 33 12 50 13 l29 1 -29 -23z m-223 -62 c-7 -2 -21 -2
-30 0 -10 3 -4 5 12 5 17 0 24 -2 18 -5z m187 -869 c0 -8 -4 -12 -10 -9 -5 3
-10 10 -10 16 0 5 5 9 10 9 6 0 10 -7 10 -16z m-620 -201 c0 -5 -4 -15 -10
-23 -5 -8 -5 -17 -1 -20 5 -3 5 -14 1 -25 -7 -19 -7 -19 -19 4 -11 19 -11 28
0 47 12 23 29 33 29 17z"/>
<path d="M3541 3794 c0 -11 3 -14 6 -6 3 7 2 16 -1 19 -3 4 -6 -2 -5 -13z"/>
<path d="M3241 3559 c12 -7 12 -9 -1 -10 -39 -2 -97 -15 -182 -41 -34 -10 -48
-26 -53 -63 -1 -5 -3 -14 -4 -20 -1 -5 -7 -3 -14 5 -7 8 -22 20 -34 27 -17 10
-24 9 -37 -6 -9 -10 -16 -23 -16 -29 0 -7 -7 -12 -16 -12 -13 0 -15 -8 -9 -50
5 -35 3 -50 -5 -50 -6 0 -8 -5 -3 -12 4 -7 8 -25 8 -39 0 -15 6 -34 14 -42 7
-9 10 -21 7 -26 -15 -24 17 -19 39 6 26 29 35 20 11 -12 -7 -10 -11 -26 -9
-36 4 -14 9 -16 23 -7 10 7 25 8 36 3 26 -12 64 -13 71 -2 3 4 -5 11 -17 14
-13 4 -19 11 -16 20 3 8 6 20 6 27 0 7 12 18 26 24 14 7 23 8 20 4 -10 -17 36
-92 60 -98 56 -14 114 25 114 76 0 17 4 30 9 30 15 0 34 -30 37 -59 7 -59 -40
-72 -203 -58 -40 3 -75 2 -77 -2 -7 -10 30 -41 49 -41 7 0 17 -5 20 -11 4 -6
14 -8 22 -5 8 3 38 -1 67 -9 57 -17 106 -17 100 0 -4 11 40 35 65 35 9 0 27 9
41 20 14 11 33 20 42 20 18 0 78 67 78 88 0 7 5 10 10 7 6 -3 10 -1 10 6 0 8
4 8 15 -1 26 -22 35 1 36 92 0 65 -71 198 -107 198 -8 0 -14 3 -14 8 0 4 -17
15 -38 24 -39 19 -209 25 -181 7z m-37 -330 c-3 -5 -10 -7 -15 -3 -5 3 -7 10
-3 15 3 5 10 7 15 3 5 -3 7 -10 3 -15z m-54 1 c0 -5 -5 -10 -11 -10 -5 0 -7 5
-4 10 3 6 8 10 11 10 2 0 4 -4 4 -10z m-140 -50 c8 -5 12 -12 8 -15 -9 -9 -48
4 -48 16 0 12 21 11 40 -1z"/>
<path d="M1520 3345 c0 -28 6 -72 14 -100 13 -48 14 -49 21 -22 11 43 1 136
-18 155 -16 15 -17 13 -17 -33z"/>
<path d="M1851 3314 c0 -11 3 -14 6 -6 3 7 2 16 -1 19 -3 4 -6 -2 -5 -13z"/>
<path d="M2561 2964 c0 -11 3 -14 6 -6 3 7 2 16 -1 19 -3 4 -6 -2 -5 -13z"/>
<path d="M2538 2862 c-16 -9 -28 -22 -28 -29 0 -7 -6 -16 -12 -20 -12 -7 -39
-60 -96 -185 l-21 -46 27 -27 c34 -34 72 -54 112 -58 16 -2 33 -7 37 -10 3 -4
19 -7 34 -7 15 0 31 -4 34 -10 8 -14 63 -12 106 3 19 6 55 29 79 49 62 54 146
66 120 17 -16 -28 11 -25 49 7 36 30 39 49 12 64 -32 17 -56 12 -128 -25 -61
-33 -72 -35 -123 -29 -58 7 -91 22 -128 61 -20 21 -28 23 -70 17 -26 -4 -57
-10 -69 -15 -17 -6 -25 -4 -33 10 -13 25 26 97 60 110 48 17 60 34 65 89 3 28
4 52 3 52 -2 0 -15 -8 -30 -18z"/>
<path d="M1681 2803 c-1 -13 4 -23 10 -23 5 0 7 -5 3 -11 -4 -7 -1 -10 7 -7
16 5 19 28 4 27 -5 0 -12 8 -16 18 -7 16 -8 15 -8 -4z"/>
<path d="M1757 2653 c-3 -16 0 -31 6 -35 17 -11 27 -10 27 2 0 6 -5 10 -11 10
-6 0 -9 6 -6 13 3 8 2 19 -3 26 -5 9 -9 3 -13 -16z"/>
<path d="M1831 2613 c0 -13 -6 -23 -12 -23 -5 0 -7 5 -3 12 4 7 3 8 -5 4 -9
-6 -9 -11 0 -22 16 -20 32 -3 26 27 -4 24 -4 24 -6 2z"/>
<path d="M1834 2543 c4 -14 2 -24 -7 -30 -8 -4 -17 -18 -21 -30 -5 -17 -3 -21
11 -18 10 1 17 8 15 15 -1 6 3 10 10 8 17 -6 17 -54 0 -50 -8 1 -11 -2 -6 -9
4 -7 -1 -18 -10 -24 -12 -9 -15 -20 -10 -39 6 -26 15 -32 27 -19 4 3 2 12 -5
20 -6 7 -8 16 -4 20 3 3 6 1 6 -6 0 -6 10 -16 23 -21 18 -7 19 -9 3 -9 -12 -1
-16 -6 -12 -16 4 -11 -1 -15 -19 -15 -23 0 -24 -2 -13 -22 7 -13 18 -26 23
-30 6 -5 5 -8 -3 -8 -17 0 -9 -45 19 -108 10 -23 14 -40 9 -37 -6 3 -7 -1 -4
-9 3 -9 10 -16 14 -16 4 0 15 -22 24 -50 l16 -49 -79 -78 c-65 -65 -86 -94
-124 -173 -25 -52 -51 -117 -58 -144 -14 -56 22 -36 -354 -202 -228 -101 -573
-264 -613 -290 -19 -12 -21 -18 -11 -36 19 -35 58 -78 204 -224 214 -214 477
-399 710 -502 412 -180 715 -247 1115 -246 583 2 1099 182 1592 556 115 87
380 354 466 469 40 53 72 101 72 106 0 6 -35 26 -77 43 -43 18 -262 110 -488
205 -225 95 -444 185 -486 200 -70 26 -78 32 -100 74 -36 68 -116 202 -128
214 -8 8 -11 -29 -11 -130 0 -134 -15 -248 -31 -238 -4 3 -12 -18 -19 -46 -7
-28 -19 -53 -27 -56 -8 -3 -12 -12 -9 -20 3 -7 -23 -71 -59 -141 -35 -70 -91
-183 -124 -252 -82 -171 -124 -208 -241 -210 -19 -1 -50 -6 -68 -13 -28 -10
-37 -21 -52 -65 -9 -30 -33 -70 -52 -90 -19 -20 -61 -70 -92 -109 l-57 -73
-36 15 c-20 8 -84 45 -143 80 -59 36 -144 81 -191 101 -46 19 -92 43 -102 52
-21 19 -47 76 -47 103 0 11 -5 19 -11 19 -6 0 -9 12 -7 28 2 15 8 27 15 27 19
0 25 12 25 49 0 40 15 49 63 40 19 -3 35 -1 39 5 4 6 1 9 -7 5 -11 -4 -15 2
-13 20 1 30 6 31 66 10 42 -15 46 -14 60 3 9 11 31 19 55 21 22 1 58 3 80 5
22 1 45 5 51 9 6 4 30 10 52 14 29 5 42 12 42 23 0 12 2 13 9 3 7 -11 9 -11
14 2 4 10 -1 16 -16 19 -12 3 3 5 35 4 40 0 61 5 73 16 9 9 21 17 26 17 20 0
8 30 -13 31 -13 1 1 5 30 10 29 5 63 15 75 23 12 8 37 17 54 21 18 4 36 12 40
18 10 15 40 34 76 48 15 6 27 15 27 20 0 5 11 7 25 3 19 -5 25 -2 25 10 0 9 8
16 21 16 11 0 17 5 14 10 -3 6 1 13 10 16 9 4 21 18 26 31 5 13 13 22 18 19
16 -10 19 43 3 56 -13 11 -15 10 -9 -4 5 -14 0 -19 -21 -24 -15 -4 -33 -12
-41 -18 -12 -9 -13 -7 -7 8 5 15 1 13 -18 -7 -14 -15 -33 -27 -44 -27 -10 0
-23 -5 -29 -11 -6 -6 -19 -9 -29 -7 -15 3 -13 7 14 21 18 10 37 15 42 12 6 -3
10 -2 10 4 0 9 103 81 116 81 8 0 124 92 124 99 0 3 12 14 25 24 25 18 25 18
22 -3 -2 -12 -14 -27 -27 -33 -13 -7 -24 -22 -25 -35 -2 -28 -25 -53 -32 -34
-3 6 -9 12 -15 12 -6 0 -8 -6 -5 -14 4 -9 -3 -16 -16 -20 -20 -6 -21 -7 -4
-17 9 -6 14 -15 11 -21 -4 -7 -2 -8 4 -4 7 4 12 16 12 27 0 14 7 19 25 19 14
0 30 9 37 20 7 11 16 20 20 20 4 0 24 16 43 36 25 25 34 41 29 53 -12 28 -10
61 3 61 20 0 21 157 1 193 -12 23 -1 37 13 17 7 -11 8 -7 3 13 -3 15 -2 33 4
40 5 6 14 32 20 57 5 25 13 54 17 64 6 14 5 17 -3 12 -7 -4 -12 -14 -12 -22 0
-8 -4 -13 -9 -10 -5 4 -11 1 -13 -6 -2 -6 -21 -11 -41 -10 -24 1 -37 -3 -37
-11 0 -21 -69 -50 -86 -36 -11 9 -16 6 -25 -15 -7 -14 -16 -23 -22 -19 -5 3
-12 2 -16 -3 -3 -5 -15 -14 -26 -20 -11 -6 -20 -20 -20 -30 0 -10 -6 -24 -13
-30 -8 -5 -14 -26 -15 -46 -1 -33 -4 -36 -41 -44 -31 -7 -42 -14 -44 -31 -2
-13 -10 -23 -18 -23 -8 0 -14 -9 -14 -21 0 -11 -4 -17 -10 -14 -6 4 -10 -5
-10 -19 0 -22 -5 -26 -30 -26 -22 0 -28 -4 -24 -15 4 -10 -11 -32 -42 -60 -47
-45 -49 -46 -106 -42 -32 2 -61 1 -63 -4 -3 -4 -23 -6 -45 -5 -22 2 -40 0 -40
-4 0 -10 -73 -9 -87 2 -7 6 -20 7 -29 4 -9 -3 -29 3 -45 15 -16 11 -36 18 -45
15 -8 -3 -17 1 -20 9 -4 8 -12 15 -20 15 -7 0 -17 7 -22 16 -5 9 -13 17 -18
17 -5 1 -8 7 -6 14 1 6 -8 13 -20 15 -13 2 -24 11 -26 20 -2 12 2 15 17 11 19
-5 19 -3 8 26 -6 18 -19 31 -32 33 -15 2 -19 9 -17 27 6 43 -6 71 -32 71 -13
0 -30 10 -39 23 -8 12 -29 37 -47 55 -28 28 -31 34 -19 49 11 13 11 17 2 20
-7 3 -13 11 -13 18 0 8 -7 11 -20 8 -22 -6 -80 48 -80 73 0 8 -4 14 -10 14 -5
0 -10 7 -10 16 0 10 -5 14 -15 10 -11 -4 -17 3 -21 23 -4 16 -11 28 -18 25 -6
-2 -17 5 -24 17 -12 18 -12 23 0 30 8 6 9 9 1 9 -6 0 -9 9 -5 22 5 19 2 21
-27 15 -28 -6 -33 -3 -42 20 -7 19 -7 29 0 31 14 5 -26 62 -42 61 -9 0 -8 -2
1 -6 17 -7 15 -23 -3 -23 -7 0 -18 -7 -23 -16 -7 -12 -11 -13 -16 -5 -4 7 -3
18 4 26 17 20 2 110 -23 132 -19 17 -19 17 -13 -4z m139 -643 c3 -11 1 -20 -4
-20 -5 0 -9 9 -9 20 0 11 2 20 4 20 2 0 6 -9 9 -20z m9 -102 c2 -21 0 -38 -4
-38 -4 0 -7 24 -7 53 1 54 5 49 11 -15z m1174 6 c-4 -9 -9 -15 -11 -12 -3 3
-3 13 1 22 4 9 9 15 11 12 3 -3 3 -13 -1 -22z m-741 -114 c3 -5 -1 -10 -10
-10 -9 0 -13 5 -10 10 3 6 8 10 10 10 2 0 7 -4 10 -10z m575 -295 c-14 -17
-30 -20 -30 -6 0 5 8 12 18 14 9 3 19 5 21 6 2 0 -2 -6 -9 -14z m350 -441 c0
-9 -44 -43 -55 -43 -5 0 -2 4 8 10 9 5 17 17 17 24 0 8 7 15 15 15 8 0 15 -3
15 -6z m-60 -64 c0 -5 -5 -10 -11 -10 -5 0 -7 5 -4 10 3 6 8 10 11 10 2 0 4
-4 4 -10z"/>
<path d="M1800 2424 c0 -8 5 -12 10 -9 6 3 10 10 10 16 0 5 -4 9 -10 9 -5 0
-10 -7 -10 -16z"/>
<path d="M2301 2277 c-12 -12 -14 -47 -3 -63 10 -15 61 -40 107 -53 22 -5 50
-13 63 -16 12 -4 22 -10 22 -15 0 -5 6 -7 14 -4 9 3 13 -1 13 -13 -1 -12 6
-19 21 -21 15 -2 22 -11 23 -25 2 -38 4 -42 28 -66 58 -58 171 -80 221 -42 14
10 35 21 48 25 12 4 22 11 22 16 0 14 -33 21 -40 9 -6 -8 -9 -7 -12 2 -5 12
-9 12 -28 1 -16 -10 -25 -11 -33 -3 -6 6 -25 11 -42 11 -17 0 -50 9 -72 20
-23 11 -48 17 -56 14 -18 -7 -31 37 -14 48 9 6 7 12 -8 23 -15 12 -17 19 -9
33 12 17 29 18 189 14 28 -1 82 1 120 4 l70 5 -22 -20 c-13 -10 -23 -27 -23
-36 0 -13 6 -16 23 -11 12 3 27 6 34 6 6 0 27 14 45 30 22 20 43 30 63 29 16
0 37 1 46 3 19 4 54 37 42 39 -4 1 -13 2 -20 3 -7 0 -18 10 -26 20 -14 19 -16
19 -66 3 -51 -16 -53 -16 -131 9 -70 22 -85 23 -122 13 -33 -9 -58 -8 -109 1
-51 10 -70 10 -88 1 -41 -23 -134 -43 -141 -31 -6 9 -22 13 -97 19 -6 1 -18 7
-26 15 -11 11 -17 12 -26 3z"/>
<path d="M2885 1230 c-3 -5 1 -10 9 -10 9 0 16 5 16 10 0 6 -4 10 -9 10 -6 0
-13 -4 -16 -10z"/>
</g>
</svg>
